<svg xmlns="http://www.w3.org/2000/svg" viewBox="0 0 800 120" preserveAspectRatio="xMidYMax slice"><path d="M0 120V70C60 58 120 52 190 60S320 76 380 66 520 48 600 58 720 72 800 62V120Z" fill="#9BAE89"/><path d="M60 76Q160 80 260 24M260 24Q410 102 560 24M560 24Q660 80 760 76" fill="none" stroke="#0A2F3F" stroke-width="2.4"/><path d="M272 30.0V74" stroke="#0A2F3F" stroke-width="1"/><path d="M284 35.5V74" stroke="#0A2F3F" stroke-width="1"/><path d="M296 40.5V74" stroke="#0A2F3F" stroke-width="1"/><path d="M308 45.0V74" stroke="#0A2F3F" stroke-width="1"/><path d="M320 49.0V74" stroke="#0A2F3F" stroke-width="1"/><path d="M332 52.5V74" stroke="#0A2F3F" stroke-width="1"/><path d="M344 55.4V74" stroke="#0A2F3F" stroke-width="1"/><path d="M356 57.9V74" stroke="#0A2F3F" stroke-width="1"/><path d="M368 59.9V74" stroke="#0A2F3F" stroke-width="1"/><path d="M380 61.4V74" stroke="#0A2F3F" stroke-width="1"/><path d="M392 62.4V74" stroke="#0A2F3F" stroke-width="1"/><path d="M404 62.9V74" stroke="#0A2F3F" stroke-width="1"/><path d="M416 62.9V74" stroke="#0A2F3F" stroke-width="1"/><path d="M428 62.4V74" stroke="#0A2F3F" stroke-width="1"/><path d="M440 61.4V74" stroke="#0A2F3F" stroke-width="1"/><path d="M452 59.9V74" stroke="#0A2F3F" stroke-width="1"/><path d="M464 57.9V74" stroke="#0A2F3F" stroke-width="1"/><path d="M476 55.4V74" stroke="#0A2F3F" stroke-width="1"/><path d="M488 52.5V74" stroke="#0A2F3F" stroke-width="1"/><path d="M500 49.0V74" stroke="#0A2F3F" stroke-width="1"/><path d="M512 45.0V74" stroke="#0A2F3F" stroke-width="1"/><path d="M524 40.5V74" stroke="#0A2F3F" stroke-width="1"/><path d="M536 35.5V74" stroke="#0A2F3F" stroke-width="1"/><path d="M548 30.0V74" stroke="#0A2F3F" stroke-width="1"/><path d="M40 74H780" stroke="#0A2F3F" stroke-width="6"/><path d="M253 104V22h3v-4h8v4h3V104M253 36h14M253 52h14M253 64h14" fill="none" stroke="#0A2F3F" stroke-width="4.5" stroke-linejoin="round"/><path d="M553 104V22h3v-4h8v4h3V104M553 36h14M553 52h14M553 64h14" fill="none" stroke="#0A2F3F" stroke-width="4.5" stroke-linejoin="round"/><g transform="translate(400 50) scale(1.25)" fill="#FFFFFF" opacity="0.92"><ellipse cx="0" cy="0" rx="46" ry="11"/><ellipse cx="-22" cy="-7" rx="20" ry="11"/><ellipse cx="14" cy="-9" rx="24" ry="13"/><ellipse cx="38" cy="-3" rx="16" ry="9"/></g><g transform="translate(560 28) scale(0.8)" fill="#FFFFFF" opacity="0.92"><ellipse cx="0" cy="0" rx="46" ry="11"/><ellipse cx="-22" cy="-7" rx="20" ry="11"/><ellipse cx="14" cy="-9" rx="24" ry="13"/><ellipse cx="38" cy="-3" rx="16" ry="9"/></g><g transform="translate(230 40) scale(0.8)" fill="#FFFFFF" opacity="0.92"><ellipse cx="0" cy="0" rx="46" ry="11"/><ellipse cx="-22" cy="-7" rx="20" ry="11"/><ellipse cx="14" cy="-9" rx="24" ry="13"/><ellipse cx="38" cy="-3" rx="16" ry="9"/></g><g transform="translate(680 56) scale(1.1)" fill="#FFFFFF" opacity="0.92"><ellipse cx="0" cy="0" rx="46" ry="11"/><ellipse cx="-22" cy="-7" rx="20" ry="11"/><ellipse cx="14" cy="-9" rx="24" ry="13"/><ellipse cx="38" cy="-3" rx="16" ry="9"/></g><path d="M0 120V88C70 76 150 80 230 90S360 100 450 92 620 80 700 88 780 96 800 92V120Z" fill="#6EA541"/><g transform="translate(170 100) scale(1)" fill="#42693D"><path d="M-2 0h4l1-20h-6Z"/><path d="M-34 -18C-30 -30-12-34 0-30 8-38 30-36 40-26 46-22 44-16 36-16 22-12 6-18 0-16-12-12-28-10-34-18Z"/><path d="M-20 -28C-14 -40 4-44 14-38 24-44 34-38 30-32 22-30 6-30-4-30-12-28-18-26-20-28Z"/></g><g transform="translate(225 96) scale(0.7)" fill="#42693D"><path d="M-2 0h4l1-20h-6Z"/><path d="M-34 -18C-30 -30-12-34 0-30 8-38 30-36 40-26 46-22 44-16 36-16 22-12 6-18 0-16-12-12-28-10-34-18Z"/><path d="M-20 -28C-14 -40 4-44 14-38 24-44 34-38 30-32 22-30 6-30-4-30-12-28-18-26-20-28Z"/></g><g transform="translate(640 98) scale(0.95)" fill="#42693D"><path d="M-2 0h4l1-20h-6Z"/><path d="M-34 -18C-30 -30-12-34 0-30 8-38 30-36 40-26 46-22 44-16 36-16 22-12 6-18 0-16-12-12-28-10-34-18Z"/><path d="M-20 -28C-14 -40 4-44 14-38 24-44 34-38 30-32 22-30 6-30-4-30-12-28-18-26-20-28Z"/></g><g transform="translate(700 102) scale(0.75)" fill="#42693D"><path d="M-2 0h4l1-20h-6Z"/><path d="M-34 -18C-30 -30-12-34 0-30 8-38 30-36 40-26 46-22 44-16 36-16 22-12 6-18 0-16-12-12-28-10-34-18Z"/><path d="M-20 -28C-14 -40 4-44 14-38 24-44 34-38 30-32 22-30 6-30-4-30-12-28-18-26-20-28Z"/></g><g transform="translate(330 84) scale(1.2)" fill="#FFFFFF" opacity="0.92"><ellipse cx="0" cy="0" rx="46" ry="11"/><ellipse cx="-22" cy="-7" rx="20" ry="11"/><ellipse cx="14" cy="-9" rx="24" ry="13"/><ellipse cx="38" cy="-3" rx="16" ry="9"/></g><g transform="translate(520 80) scale(0.9)" fill="#FFFFFF" opacity="0.92"><ellipse cx="0" cy="0" rx="46" ry="11"/><ellipse cx="-22" cy="-7" rx="20" ry="11"/><ellipse cx="14" cy="-9" rx="24" ry="13"/><ellipse cx="38" cy="-3" rx="16" ry="9"/></g></svg>